.
..............................Site Info...........................

 -   http://www.scenetime.com  *_*   

SceneTime is going to Close sign up on march/1, hurry up! get in before the doors are closed.

     We care to share . Join us on  http://www.scenetime.com 

    Be the first to get new release at  http://www.scenetime.com

        Seed back for speed


...................................NFO:.................................................                                                                                                     
       
     
     
       
       
     
     
                                         
                                         
                EXVID                    
                                         
         
                                         
         Filled the Archives             
                                         
         
                                         
                With:                    
                                         
         
                                         
                                    
     E240                           
                                    
     SP               (C) 2009      
                                         
     
     
     
                                                                                  
                                                                                   
                    Cadence.1990.iNTERNAL.DVDRip.XviD-EXViDiNT                      
                                                                                   
                                                                                  
     
                                                                                               
EXViD aims to iNTERNAL those releases which have been lost in the archives.
EXViD aims to PRE non-internal releases which have poor sources and are likely skipped by others. 
http://www.imdb.com/title/tt0101531/
Subtitles: None
Date: 2012.02

Director: Martin Sheen

Genres: Drama

Plot:
Charlie Sheen plays a rebellious inmate in an Army stockade.

Cast:
Charlie Sheen	...	Bean
Jay Brazeau	...	Mr. Vito
Matt Clark	...	Bean Sr.
Tom McBeath	...	Principal (as Tom Mcbeath)
David Glyn-Jones	...	Funeral Director
Samantha Langevin	...	Mrs. Vito
Jenn Griffin	...	Tattooist (as Jennifer Griffin)
Tony Pantages	...	M.P. in Bar
Deryl Hayes	...	Sager
David Michael O'Neill	...	Brooks
Roark Critchlow	...	McKinney
Martin Sheen	...	Gessner
Ramon Estevez	...	Lamar
James Marshall	...	Stokes (as Larry Fishburne)
Laurence Fishburne	...	Webb

Stats:
Format                                   : AVI
Format/Info                              : Audio Video Interleave
File size                                : 702 MiB
Duration                                 : 1h 33mn
Overall bit rate mode                    : Variable
Overall bit rate                         : 1 055 Kbps

Video
ID                                       : 0
Format                                   : MPEG-4 Visual
Format profile                           : Advanced Simple@L5
Format settings, BVOP                    : 2
Format settings, QPel                    : No
Format settings, GMC                     : No warppoints
Format settings, Matrix                  : Default (H.263)
Codec ID                                 : XVID
Codec ID/Hint                            : XviD
Duration                                 : 1h 33mn
Bit rate                                 : 919 Kbps
Width                                    : 624 pixels
Height                                   : 336 pixels
Display aspect ratio                     : 1.857
Frame rate                               : 25.000 fps
Color space                              : YUV
Chroma subsampling                       : 4:2:0
Bit depth                                : 8 bits
Scan type                                : Progressive
Compression mode                         : Lossy
Bits/(Pixel*Frame)                       : 0.175
Stream size                              : 612 MiB (87%)
Writing library                          : XviD 64

Audio
ID                                       : 1
Format                                   : MPEG Audio
Format version                           : Version 1
Format profile                           : Layer 3
Mode                                     : Joint stereo
Mode extension                           : MS Stereo
Codec ID                                 : 55
Codec ID/Hint                            : MP3
Duration                                 : 1h 33mn
Bit rate mode                            : Variable
Bit rate                                 : 123 Kbps
Channel(s)                               : 2 channels
Sampling rate                            : 48.0 KHz
Compression mode                         : Lossy
Stream size                              : 81.6 MiB (12%)
Alignment                                : Aligned on interleaves
Interleave, duration                     : 24 ms (0.60 video frame)
Interleave, preload duration             : 403 ms



Release notes:
Enjoy!

Looking for:
75TB+ Archives
DUTCH/FLEMiSH Archives
                                                                                                    
Greets: CRBS EPiSODE FiCO FLS iLS KLASSiGER LiPSYNC MADE NODLABS RUNNER SPRiNTER      
   

                                                                    ASCII DONE BY XX^NFO 2oo9     
 

RLS-Crc: 415243414445:42EECD90